<svg xmlns="http://www.w3.org/2000/svg" viewBox="0 0 512 512"><title>smiley</title><path d="M486.18,256c0,127.14-103,230.17-230.17,230.17S25.83,383.14,25.83,256,128.87,25.83,256,25.83,486.18,128.88,486.18,256Z" fill="#ffd764"/><circle cx="160" cy="218" r="24" fill="#4a4a4a"/><circle cx="352" cy="218" r="24" fill="#4a4a4a"/><g transform="translate(256 300) scale(0.8) translate(-256 -300)"><path d="M398.71,292.22c0,67.15-63.88,134.33-142.71,134.33S113.29,359.36,113.29,292.22Z" fill="#fa645a"/><path d="M113.29,292.22a114.56,114.56,0,0,0,5.63,34.6H393.07a114,114,0,0,0,5.64-34.6Z" fill="#fff"/></g></svg>
